  0
SECTION
  2
HEADER
  9
$ACADVER
  1
AC1009
  9
$DWGCODEPAGE
  3
ansi_1252
  9
$INSBASE
 10
0.0
 20
0.0
 30
0.0
  9
$EXTMIN
 10
-25.0
 20
-105.0
 30
0.0
  9
$EXTMAX
 10
127.6342139133889
 20
-45.0
 30
0.0
  9
$LIMMIN
 10
0.0
 20
0.0
  9
$LIMMAX
 10
12.0
 20
9.0
  9
$ORTHOMODE
 70
     0
  9
$REGENMODE
 70
     1
  9
$FILLMODE
 70
     1
  9
$QTEXTMODE
 70
     0
  9
$MIRRTEXT
 70
     1
  9
$DRAGMODE
 70
     2
  9
$LTSCALE
 40
1.0
  9
$OSMODE
 70
    37
  9
$ATTMODE
 70
     1
  9
$TEXTSIZE
 40
0.2
  9
$TRACEWID
 40
0.05
  9
$TEXTSTYLE
  7
STANDARD
  9
$CLAYER
  8
DEFAULT
  9
$CELTYPE
  6
BYLAYER
  9
$CECOLOR
 62
   256
  9
$DIMSCALE
 40
1.0
  9
$DIMASZ
 40
0.18
  9
$DIMEXO
 40
0.0625
  9
$DIMDLI
 40
0.38
  9
$DIMRND
 40
0.0
  9
$DIMDLE
 40
0.0
  9
$DIMEXE
 40
0.18
  9
$DIMTP
 40
0.0
  9
$DIMTM
 40
0.0
  9
$DIMTXT
 40
0.18
  9
$DIMCEN
 40
0.09
  9
$DIMTSZ
 40
0.0
  9
$DIMTOL
 70
     0
  9
$DIMLIM
 70
     0
  9
$DIMTIH
 70
     1
  9
$DIMTOH
 70
     1
  9
$DIMSE1
 70
     0
  9
$DIMSE2
 70
     0
  9
$DIMTAD
 70
     0
  9
$DIMZIN
 70
     0
  9
$DIMBLK
  1

  9
$DIMASO
 70
     1
  9
$DIMSHO
 70
     1
  9
$DIMPOST
  1

  9
$DIMAPOST
  1

  9
$DIMALT
 70
     0
  9
$DIMALTD
 70
     2
  9
$DIMALTF
 40
25.4
  9
$DIMLFAC
 40
1.0
  9
$DIMTOFL
 70
     0
  9
$DIMTVP
 40
0.0
  9
$DIMTIX
 70
     0
  9
$DIMSOXD
 70
     0
  9
$DIMSAH
 70
     0
  9
$DIMBLK1
  1

  9
$DIMBLK2
  1

  9
$DIMSTYLE
  2
STANDARD_ACAD
  9
$DIMCLRD
 70
     0
  9
$DIMCLRE
 70
     0
  9
$DIMCLRT
 70
     0
  9
$DIMTFAC
 40
1.0
  9
$DIMGAP
 40
0.09
  9
$LUNITS
 70
     2
  9
$LUPREC
 70
     3
  9
$SKETCHINC
 40
0.1
  9
$FILLETRAD
 40
0.0
  9
$AUNITS
 70
     0
  9
$AUPREC
 70
     0
  9
$MENU
  1
.
  9
$ELEVATION
 40
0.0
  9
$PELEVATION
 40
0.0
  9
$THICKNESS
 40
0.0
  9
$LIMCHECK
 70
     0
  9
$CHAMFERA
 40
0.0
  9
$CHAMFERB
 40
0.0
  9
$SKPOLY
 70
     0
  9
$TDCREATE
 40
2461209.680129224
  9
$TDUPDATE
 40
2461209.680134109
  9
$TDINDWG
 40
0.0000000116
  9
$TDUSRTIMER
 40
0.0000000116
  9
$USRTIMER
 70
     1
  9
$ANGBASE
 50
0.0
  9
$ANGDIR
 70
     0
  9
$PDMODE
 70
     0
  9
$PDSIZE
 40
0.0
  9
$PLINEWID
 40
0.0
  9
$COORDS
 70
     1
  9
$SPLFRAME
 70
     0
  9
$SPLINETYPE
 70
     6
  9
$SPLINESEGS
 70
     8
  9
$ATTDIA
 70
     0
  9
$ATTREQ
 70
     1
  9
$HANDLING
 70
     1
  9
$HANDSEED
  5
1BF
  9
$SURFTAB1
 70
     6
  9
$SURFTAB2
 70
     6
  9
$SURFTYPE
 70
     6
  9
$SURFU
 70
     6
  9
$SURFV
 70
     6
  9
$UCSNAME
  2

  9
$UCSORG
 10
0.0
 20
0.0
 30
0.0
  9
$UCSXDIR
 10
1.0
 20
0.0
 30
0.0
  9
$UCSYDIR
 10
0.0
 20
1.0
 30
0.0
  9
$PUCSNAME
  2

  9
$PUCSORG
 10
0.0
 20
0.0
 30
0.0
  9
$PUCSXDIR
 10
1.0
 20
0.0
 30
0.0
  9
$PUCSYDIR
 10
0.0
 20
1.0
 30
0.0
  9
$USERI1
 70
     0
  9
$USERI2
 70
     0
  9
$USERI3
 70
     0
  9
$USERI4
 70
     0
  9
$USERI5
 70
     0
  9
$USERR1
 40
0.0
  9
$USERR2
 40
0.0
  9
$USERR3
 40
0.0
  9
$USERR4
 40
0.0
  9
$USERR5
 40
0.0
  9
$WORLDVIEW
 70
     1
  9
$SHADEDGE
 70
     3
  9
$SHADEDIF
 70
    70
  9
$TILEMODE
 70
     1
  9
$MAXACTVP
 70
    64
  9
$PLIMCHECK
 70
     0
  9
$PEXTMIN
 10
1.000000000000000E+20
 20
1.000000000000000E+20
 30
1.000000000000000E+20
  9
$PEXTMAX
 10
-1.000000000000000E+20
 20
-1.000000000000000E+20
 30
-1.000000000000000E+20
  9
$PLIMMIN
 10
0.0
 20
0.0
  9
$PLIMMAX
 10
12.0
 20
9.0
  9
$UNITMODE
 70
     0
  9
$VISRETAIN
 70
     1
  9
$PLINEGEN
 70
     0
  9
$PSLTSCALE
 70
     1
  0
ENDSEC
  0
SECTION
  2
TABLES
  0
TABLE
  2
VPORT
 70
     1
  0
VPORT
  2
*ACTIVE
 70
     0
 10
0.0
 20
0.0
 11
1.0
 21
1.0
 12
10.42990654205607
 22
4.5
 13
0.0
 23
0.0
 14
0.5
 24
0.5
 15
0.5
 25
0.5
 16
0.0
 26
0.0
 36
1.0
 17
0.0
 27
0.0
 37
0.0
 40
9.0
 41
1.972972972850329
 42
50.0
 43
0.0
 44
0.0
 50
0.0
 51
0.0
 71
     0
 72
   100
 73
     1
 74
     3
 75
     0
 76
     0
 77
     0
 78
     0
  0
ENDTAB
  0
TABLE
  2
LTYPE
 70
     1
  0
LTYPE
  2
CONTINUOUS
 70
     0
  3
Solid line
 72
    65
 73
     0
 40
0.0
  0
ENDTAB
  0
TABLE
  2
LAYER
 70
     4
  0
LAYER
  2
0
 70
     0
 62
     7
  6
CONTINUOUS
  0
LAYER
  2
DEFAULT
 70
     0
 62
     7
  6
CONTINUOUS
  0
LAYER
  2
CUT
 70
     0
 62
     1
  6
CONTINUOUS
  0
LAYER
  2
CUTGRAVE
 70
     0
 62
     5
  6
CONTINUOUS
  0
ENDTAB
  0
TABLE
  2
STYLE
 70
     5
  0
STYLE
  2
STANDARD
 70
     0
 40
0.0
 41
1.0
 50
0.0
 71
     0
 42
0.2
  3
txt
  4

  0
STYLE
  2
ARIAL_\U+041E\U+0411\U+042B\U+0427\U+041D\U+042B\U+0419
 70
     0
 40
0.0
 41
1.0
 50
0.0
 71
     0
 42
0.2
  3

  4

  0
STYLE
  2
MILLIMETER_SMALL
 70
     0
 40
0.0
 41
1.0
 50
0.0
 71
     0
 42
0.2
  3

  4

  0
STYLE
  2
DEFAULT
 70
     0
 40
0.0
 41
1.0
 50
0.0
 71
     0
 42
0.2
  3

  4

  0
STYLE
  2
MTXPL_ARIAL
 70
     0
 40
0.2
 41
1.0
 50
0.0
 71
     0
 42
0.2
  3
txt.shx
  4

  0
ENDTAB
  0
TABLE
  2
VIEW
 70
     0
  0
ENDTAB
  0
TABLE
  2
UCS
 70
     0
  0
ENDTAB
  0
TABLE
  2
APPID
 70
     3
  0
APPID
  2
ACAD
 70
     0
  0
APPID
  2
RHINO
 70
     0
  0
APPID
  2
ACADANNOTATIVE
 70
     0
  0
ENDTAB
  0
TABLE
  2
DIMSTYLE
 70
     1
  0
DIMSTYLE
  2
STANDARD_ACAD
 70
     0
  3

  4

  5

  6

  7

 40
1.0
 41
0.18
 42
0.0625
 43
0.38
 44
0.18
 45
0.0
 46
0.0
 47
0.0
 48
0.0
140
0.18
141
0.09
142
0.0
143
25.4
144
1.0
145
0.0
146
1.0
147
0.09
 71
     0
 72
     0
 73
     1
 74
     1
 75
     0
 76
     0
 77
     0
 78
     0
170
     0
171
     2
172
     0
173
     0
174
     0
175
     0
176
     0
177
     0
178
     0
  0
ENDTAB
  0
ENDSEC
  0
SECTION
  2
BLOCKS
  0
BLOCK
  8
0
  2
$MODEL_SPACE
 70
     0
 10
0.0
 20
0.0
 30
0.0
  3
$MODEL_SPACE
  1

  0
ENDBLK
  5
21
  8
0
  0
BLOCK
 67
     1
  8
0
  2
$PAPER_SPACE
 70
     0
 10
0.0
 20
0.0
 30
0.0
  3
$PAPER_SPACE
  1

  0
ENDBLK
  5
1D
 67
     1
  8
0
  0
BLOCK
  8
0
  2
*X1
 70
     1
 10
0.0
 20
0.0
 30
0.0
  3
*X1
  1

  0
TEXT
  5
1B4
  8
DEFAULT
 10
28.98125739164973
 20
-50.68880133877115
 30
0.0
 40
2.0
  1
T1 - \U+0442\U+0440\U+0430\U+043D\U+0437\U+0438\U+0441\U+0442\U+043E\U+0440
  7
MTXPL_ARIAL
  0
TEXT
  5
1B5
  8
DEFAULT
 10
29.03525739164973
 20
-57.36346800543782
 30
0.0
 40
2.0
  1
VR1 - \U+043F\U+0435\U+0440\U+0435\U+043C\U+0435\U+043D\U+043D\U+044B\U+0439 \U+0440\U+0435\U+0437\U+0438\U+0441\U+0442\U+043E\U+0440
  7
MTXPL_ARIAL
  0
TEXT
  5
1B6
  8
DEFAULT
 10
28.84325739164973
 20
-64.06213467210449
 30
0.0
 40
2.0
  1
LED1 - \U+0441\U+0432\U+0435\U+0442\U+043E\U+0434\U+0438\U+043E\U+0434 (+ \U+0434\U+043B\U+0438\U+043D\U+043D\U+0430\U+044F \U+043D\U+043E\U+0436\U+043A\U+0430)
  7
MTXPL_ARIAL
  0
TEXT
  5
1B7
  8
DEFAULT
 10
28.84325739164973
 20
-70.76080133877116
 30
0.0
 40
2.0
  1
LED2 - \U+0441\U+0432\U+0435\U+0442\U+043E\U+0434\U+0438\U+043E\U+0434 (+ \U+0434\U+043B\U+0438\U+043D\U+043D\U+0430\U+044F \U+043D\U+043E\U+0436\U+043A\U+0430)
  7
MTXPL_ARIAL
  0
TEXT
  5
1B8
  8
DEFAULT
 10
28.84325739164973
 20
-77.47346800543782
 30
0.0
 40
2.0
  1
B1 - \U+0434\U+0435\U+0440\U+0436\U+0430\U+0442\U+0435\U+043B\U+044C \U+0431\U+0430\U+0442\U+0430\U+0440\U+0435\U+0439\U+043A\U+0438
  7
MTXPL_ARIAL
  0
TEXT
  5
1B9
  8
DEFAULT
 10
28.83125739164973
 20
-84.14813467210449
 30
0.0
 40
2.0
  1
PR1 - \U+0444\U+043E\U+0442\U+043E\U+0440\U+0435\U+0437\U+0438\U+0441\U+0442\U+043E\U+0440
  7
MTXPL_ARIAL
  0
TEXT
  5
1BA
  8
DEFAULT
 10
28.82725739164973
 20
-90.84880133877115
 30
0.0
 40
2.0
  1
R1 - SMD \U+0440\U+0435\U+0437\U+0438\U+0441\U+0442\U+043E\U+0440 220 \U+041E\U+043C
  7
MTXPL_ARIAL
  0
TEXT
  5
1BB
  8
DEFAULT
 10
28.82725739164973
 20
-97.54946800543782
 30
0.0
 40
2.0
  1
R2 - SMD \U+0440\U+0435\U+0437\U+0438\U+0441\U+0442\U+043E\U+0440 1K
  7
MTXPL_ARIAL
  0
TEXT
  5
1BC
  8
DEFAULT
 10
28.91325739164973
 20
-104.2501346721045
 30
0.0
 40
2.0
  1
ON - \U+0432\U+044B\U+043A\U+043B\U+044E\U+0447\U+0430\U+0442\U+0435\U+043B\U+044C
  7
MTXPL_ARIAL
  0
ENDBLK
  5
1BE
  8
0
  0
ENDSEC
  0
SECTION
  2
ENTITIES
  0
TEXT
  5
61
  8
DEFAULT
 10
10.87162671014032
 20
-94.00131359311312
 30
0.0
 40
1.143002286004572
  1
PR1
  7
ARIAL_\U+041E\U+0411\U+042B\U+0427\U+041D\U+042B\U+0419
1001
ACADANNOTATIVE
1000
AnnotativeData
1002
{
1070
     1
1070
     0
1002
}
  0
CIRCLE
  5
63
  8
CUT
 10
-14.05548348373473
 20
-97.3930149208065
 30
0.0
 40
0.4
210
0.0
220
0.0
230
-1.0
  0
CIRCLE
  5
64
  8
CUT
 10
10.44980526013935
 20
-97.3930149208065
 30
0.0
 40
0.4
  0
POLYLINE
  5
66
  8
CUTGRAVE
 66
     1
 10
0.0
 20
0.0
 30
0.0
  0
VERTEX
  5
67
  8
CUTGRAVE
 10
11.60291107247053
 20
-99.59271012019686
 30
0.0
  0
VERTEX
  5
68
  8
CUTGRAVE
 10
11.60291107247053
 20
-98.89271012019681
 30
0.0
  0
VERTEX
  5
69
  8
CUTGRAVE
 10
13.10291107247042
 20
-98.89271012019681
 30
0.0
  0
VERTEX
  5
6A
  8
CUTGRAVE
 10
13.10291107247042
 20
-98.29268472014606
 30
0.0
  0
VERTEX
  5
6B
  8
CUTGRAVE
 10
11.60291107247053
 20
-98.29268472014606
 30
0.0
  0
VERTEX
  5
6C
  8
CUTGRAVE
 10
11.60291107247053
 20
-97.59271012019686
 30
0.0
  0
VERTEX
  5
6D
  8
CUTGRAVE
 10
13.10291107247042
 20
-97.59271012019686
 30
0.0
  0
VERTEX
  5
6E
  8
CUTGRAVE
 10
13.10291107247042
 20
-96.99265932009526
 30
0.0
  0
VERTEX
  5
6F
  8
CUTGRAVE
 10
11.60291107247053
 20
-96.99265932009526
 30
0.0
  0
VERTEX
  5
70
  8
CUTGRAVE
 10
11.60291107247053
 20
-96.49265932009526
 30
0.0
  0
VERTEX
  5
71
  8
CUTGRAVE
 10
13.2028856724196
 20
-96.49265932009526
 30
0.0
  0
VERTEX
  5
72
  8
CUTGRAVE
 10
13.2028856724196
 20
-95.99273552024756
 30
0.0
  0
VERTEX
  5
73
  8
CUTGRAVE
 10
11.60291107247053
 20
-95.99273552024756
 30
0.0
  0
VERTEX
  5
74
  8
CUTGRAVE
 10
11.60291107247053
 20
-95.19271012019676
 30
0.0
  0
SEQEND
  5
75
  8
CUTGRAVE
  0
POLYLINE
  5
76
  8
CUTGRAVE
 66
     1
 10
0.0
 20
0.0
 30
0.0
 70
     1
  0
VERTEX
  5
77
  8
CUTGRAVE
 10
11.10329207323243
 20
-95.19210051897758
 30
0.0
 42
0.6825899066452837
  0
VERTEX
  5
78
  8
CUTGRAVE
 10
11.10329207323243
 20
-99.5939293226354
 30
0.0
  0
VERTEX
  5
79
  8
CUTGRAVE
 10
13.40199667064167
 20
-99.5939293226355
 30
0.0
 42
0.6816374309278643
  0
VERTEX
  5
7A
  8
CUTGRAVE
 10
13.60265707196254
 20
-95.19210051897765
 30
0.0
  0
SEQEND
  5
7B
  8
CUTGRAVE
  0
TEXT
  5
7C
  8
DEFAULT
 10
4.210278464993637
 20
-50.52609179243494
 30
0.0
 40
1.143002286004572
  1
LED1
  7
ARIAL_\U+041E\U+0411\U+042B\U+0427\U+041D\U+042B\U+0419
1001
ACADANNOTATIVE
1000
AnnotativeData
1002
{
1070
     1
1070
     0
1002
}
  0
TEXT
  5
7D
  8
DEFAULT
 10
16.73747737074531
 20
-50.52754665474775
 30
0.0
 40
1.143002286004572
  1
LED2
  7
ARIAL_\U+041E\U+0411\U+042B\U+0427\U+041D\U+042B\U+0419
1001
ACADANNOTATIVE
1000
AnnotativeData
1002
{
1070
     1
1070
     0
1002
}
  0
LINE
  5
7E
  8
CUTGRAVE
 10
20.04965341217517
 20
-55.49226943489603
 30
0.0
 11
20.04965341217517
 21
-57.99521496908154
 31
0.0
  0
LINE
  5
7F
  8
CUTGRAVE
 10
17.44397518857978
 20
-55.51795319598616
 30
0.0
 11
17.44397518857978
 21
-60.99521496908154
 31
0.0
  0
LINE
  5
80
  8
CUTGRAVE
 10
4.916771703519577
 20
-55.51795046124116
 30
0.0
 11
4.916771703519577
 21
-61.00000000008413
 31
0.0
  0
LINE
  5
81
  8
CUTGRAVE
 10
7.522449927114961
 20
-55.49227229356964
 30
0.0
 11
7.522449927114961
 21
-58.00000000008413
 31
0.0
  0
ARC
  5
82
  8
CUTGRAVE
  6
CONTINUOUS
 10
6.198585402438196
 20
-53.37156893847671
 30
0.0
 40
2.5
 50
0.1096649517051373
 51
178.2598653407069
  0
ARC
  5
83
  8
DEFAULT
 10
6.198585402438196
 20
-53.37156893847671
 30
0.0
 40
2.5
 50
359.8903351005263
 51
0.1096649517051373
  0
ARC
  5
84
  8
CUTGRAVE
 10
6.198585402438196
 20
-53.37156893847671
 30
0.0
 40
2.5
 50
196.7201413490729
 51
359.8903351005263
  0
ARC
  5
85
  8
DEFAULT
 10
6.198585402438196
 20
-53.37156893847671
 30
0.0
 40
2.5
 50
180.1115634553539
 51
196.7201413490729
  0
ARC
  5
86
  8
DEFAULT
 10
6.198585402438196
 20
-53.37156893847671
 30
0.0
 40
2.5
 50
178.2598653407069
 51
180.1115634553539
  0
TEXT
  5
87
  8
DEFAULT
 10
22.05719277616557
 20
-55.09439502543324
 30
0.0
 40
2.0
  1
-
  7
ARIAL_\U+041E\U+0411\U+042B\U+0427\U+041D\U+042B\U+0419
1001
ACADANNOTATIVE
1000
AnnotativeData
1002
{
1070
     1
1070
     0
1002
}
  0
POLYLINE
  5
88
  8
CUTGRAVE
 66
     1
 10
0.0
 20
0.0
 30
0.0
  0
VERTEX
  5
89
  8
CUTGRAVE
 10
21.22578430818987
 20
-53.37156893847671
 30
0.0
  0
VERTEX
  5
8A
  8
CUTGRAVE
 10
21.22578430818987
 20
-50.37830454173583
 30
0.0
 42
0.4142128267656555
  0
VERTEX
  5
8B
  8
CUTGRAVE
 10
18.84753055857223
 20
-48.00537500289727
 30
0.0
  0
VERTEX
  5
8C
  8
CUTGRAVE
 10
18.64659158641943
 20
-48.00537500289727
 30
0.0
 42
0.4142128267656588
  0
VERTEX
  5
8D
  8
CUTGRAVE
 10
16.26833783680178
 20
-50.37830454173583
 30
0.0
  0
VERTEX
  5
8E
  8
CUTGRAVE
 10
16.22579362673647
 20
-53.3716517784502
 30
0.0
  0
VERTEX
  5
8F
  8
CUTGRAVE
 10
16.33148533999539
 20
-54.08602692788827
 30
0.0
  0
SEQEND
  5
90
  8
CUTGRAVE
  0
POLYLINE
  5
91
  8
CUTGRAVE
 66
     1
 10
0.0
 20
0.0
 30
0.0
  0
VERTEX
  5
92
  8
CUTGRAVE
 10
8.698580823129666
 20
-53.3763539694793
 30
0.0
  0
VERTEX
  5
93
  8
CUTGRAVE
 10
8.698580823129658
 20
-50.38308957273841
 30
0.0
 42
0.4142128267656586
  0
VERTEX
  5
94
  8
CUTGRAVE
 10
6.320327073512016
 20
-48.01016003389986
 30
0.0
  0
VERTEX
  5
95
  8
CUTGRAVE
 10
6.119388101359219
 20
-48.01016003389985
 30
0.0
 42
0.4142128267656545
  0
VERTEX
  5
96
  8
CUTGRAVE
 10
3.741134351741573
 20
-50.38308957273841
 30
0.0
  0
VERTEX
  5
97
  8
CUTGRAVE
 10
3.698590141676261
 20
-53.37643680945278
 30
0.0
  0
VERTEX
  5
98
  8
CUTGRAVE
 10
3.80428185493518
 20
-54.09081195889086
 30
0.0
  0
SEQEND
  5
99
  8
CUTGRAVE
  0
CIRCLE
  5
9A
  8
CUT
 10
16.97701330259235
 20
-53.34426308953981
 30
0.0
 40
0.4
  0
CIRCLE
  5
9B
  8
CUT
 10
-20.58269152618773
 20
-53.34426308953981
 30
0.0
 40
0.4
210
0.0
220
0.0
230
-1.0
  0
CIRCLE
  5
9C
  8
CUT
 10
-8.02244992711496
 20
-53.34426308953981
 30
0.0
 40
0.4
210
0.0
220
0.0
230
-1.0
  0
CIRCLE
  5
9D
  8
CUT
 10
4.416771703519577
 20
-53.34426308953981
 30
0.0
 40
0.4
  0
TEXT
  5
9E
  8
DEFAULT
 10
9.529993870413897
 20
-54.09439502543324
 30
0.0
 40
2.0
  1
-
  7
ARIAL_\U+041E\U+0411\U+042B\U+0427\U+041D\U+042B\U+0419
1001
ACADANNOTATIVE
1000
AnnotativeData
1002
{
1070
     1
1070
     0
1002
}
  0
TEXT
  5
9F
  8
DEFAULT
 10
0.8278489495417417
 20
-54.48972334869856
 30
0.0
 40
2.286004572009144
  1
+
  7
ARIAL_\U+041E\U+0411\U+042B\U+0427\U+041D\U+042B\U+0419
1001
ACADANNOTATIVE
1000
AnnotativeData
1002
{
1070
     1
1070
     0
1002
}
  0
TEXT
  5
A0
  8
DEFAULT
 10
13.35504785529342
 20
-54.48972334869856
 30
0.0
 40
2.286004572009144
  1
+
  7
ARIAL_\U+041E\U+0411\U+042B\U+0427\U+041D\U+042B\U+0419
1001
ACADANNOTATIVE
1000
AnnotativeData
1002
{
1070
     1
1070
     0
1002
}
  0
CIRCLE
  5
A1
  8
CUTGRAVE
 10
18.72578430818987
 20
-53.37156893847671
 30
0.0
 40
2.5
  0
TEXT
  5
A2
  8
DEFAULT
 10
-14.54025554083027
 20
-76.93525885300306
 30
0.0
 40
1.143002286004572
  1
R2 1K
  7
ARIAL_\U+041E\U+0411\U+042B\U+0427\U+041D\U+042B\U+0419
1001
ACADANNOTATIVE
1000
AnnotativeData
1002
{
1070
     1
1070
     0
1002
}
  0
TEXT
  5
A3
  8
DEFAULT
 10
-14.54840553090982
 20
-68.403780122967
 30
0.0
 40
1.143002286004572
  1
R1 220
  7
ARIAL_\U+041E\U+0411\U+042B\U+0427\U+041D\U+042B\U+0419
1001
ACADANNOTATIVE
1000
AnnotativeData
1002
{
1070
     1
1070
     0
1002
}
  0
LINE
  5
A4
  8
CUT
 10
-20.8561992910879
 20
-73.94894719795661
 30
0.0
 11
-16.85619929108789
 21
-73.94894719795661
 31
0.0
  0
POLYLINE
  5
A5
  8
CUTGRAVE
 66
     1
 10
0.0
 20
0.0
 30
0.0
 70
     1
  0
VERTEX
  5
A6
  8
CUTGRAVE
 10
-17.2561992910879
 20
-75.6489471979566
 30
0.0
  0
VERTEX
  5
A7
  8
CUTGRAVE
 10
-20.45619929108789
 20
-75.6489471979566
 30
0.0
  0
VERTEX
  5
A8
  8
CUTGRAVE
 10
-20.45619929108789
 20
-77.24894719795662
 30
0.0
  0
VERTEX
  5
A9
  8
CUTGRAVE
 10
-17.2561992910879
 20
-77.24894719795662
 30
0.0
  0
SEQEND
  5
AA
  8
CUTGRAVE
  0
POLYLINE
  5
AB
  8
CUTGRAVE
 66
     1
 10
0.0
 20
0.0
 30
0.0
  0
VERTEX
  5
AC
  8
CUTGRAVE
 10
-16.75514632105693
 20
-77.9519095854319
 30
0.0
  0
VERTEX
  5
AD
  8
CUTGRAVE
 10
-15.79626900330219
 20
-77.9519095854319
 30
0.0
  0
VERTEX
  5
AE
  8
CUTGRAVE
 10
-15.79626900330219
 20
-74.94598481048132
 30
0.0
  0
VERTEX
  5
AF
  8
CUTGRAVE
 10
-16.75514632105693
 20
-74.94598481048132
 30
0.0
  0
SEQEND
  5
B0
  8
CUTGRAVE
  0
POLYLINE
  5
B1
  8
CUTGRAVE
 66
     1
 10
0.0
 20
0.0
 30
0.0
  0
VERTEX
  5
B2
  8
CUTGRAVE
 10
-20.95725226111886
 20
-77.9519095854319
 30
0.0
  0
VERTEX
  5
B3
  8
CUTGRAVE
 10
-21.9161295788736
 20
-77.9519095854319
 30
0.0
  0
VERTEX
  5
B4
  8
CUTGRAVE
 10
-21.9161295788736
 20
-74.94598481048132
 30
0.0
  0
VERTEX
  5
B5
  8
CUTGRAVE
 10
-20.95725226111886
 20
-74.94598481048132
 30
0.0
  0
SEQEND
  5
B6
  8
CUTGRAVE
  0
LINE
  5
B7
  8
CUT
 10
-21.64454395752274
 20
-66.20469075896172
 30
0.0
 11
-17.64454395752274
 21
-66.20469075896172
 31
0.0
  0
LINE
  5
B8
  8
CUT
 10
-21.64454395752274
 20
-69.20469075896172
 30
0.0
 11
-17.64454395752274
 21
-69.20469075896172
 31
0.0
  0
POLYLINE
  5
B9
  8
CUTGRAVE
 66
     1
 10
0.0
 20
0.0
 30
0.0
  0
VERTEX
  5
BA
  8
CUTGRAVE
 10
-20.95725226111886
 20
-69.01647569055446
 30
0.0
  0
VERTEX
  5
BB
  8
CUTGRAVE
 10
-21.9161295788736
 20
-69.01647569055446
 30
0.0
  0
VERTEX
  5
BC
  8
CUTGRAVE
 10
-21.9161295788736
 20
-66.4198394015795
 30
0.0
  0
VERTEX
  5
BD
  8
CUTGRAVE
 10
-20.95725226111886
 20
-66.4198394015795
 30
0.0
  0
SEQEND
  5
BE
  8
CUTGRAVE
  0
POLYLINE
  5
BF
  8
CUTGRAVE
 66
     1
 10
0.0
 20
0.0
 30
0.0
  0
VERTEX
  5
C0
  8
CUTGRAVE
 10
-18.41845767003922
 20
-69.01647569055446
 30
0.0
  0
VERTEX
  5
C1
  8
CUTGRAVE
 10
-17.45958035228448
 20
-69.01647569055446
 30
0.0
  0
VERTEX
  5
C2
  8
CUTGRAVE
 10
-17.45958035228448
 20
-66.4198394015795
 30
0.0
  0
VERTEX
  5
C3
  8
CUTGRAVE
 10
-18.41845767003922
 20
-66.4198394015795
 30
0.0
  0
SEQEND
  5
C4
  8
CUTGRAVE
  0
POLYLINE
  5
C5
  8
CUTGRAVE
 66
     1
 10
0.0
 20
0.0
 30
0.0
 70
     1
  0
VERTEX
  5
C6
  8
CUTGRAVE
 10
-20.6878549655791
 20
-68.31815754606696
 30
0.0
  0
VERTEX
  5
C7
  8
CUTGRAVE
 10
-18.6878549655791
 20
-68.31815754606696
 30
0.0
  0
VERTEX
  5
C8
  8
CUTGRAVE
 10
-18.6878549655791
 20
-67.11815754606697
 30
0.0
  0
VERTEX
  5
C9
  8
CUTGRAVE
 10
-20.6878549655791
 20
-67.11815754606697
 30
0.0
  0
SEQEND
  5
CA
  8
CUTGRAVE
  0
LINE
  5
CB
  8
CUT
 10
-20.8561992910879
 20
-78.94894719795661
 30
0.0
 11
-16.85619929108789
 21
-78.94894719795661
 31
0.0
  0
TEXT
  5
CD
  8
DEFAULT
 10
-2.722638827845897
 20
-77.10543265965742
 30
0.0
 40
1.604520218964683
  1
E
  7
MILLIMETER_SMALL
1001
ACADANNOTATIVE
1000
AnnotativeData
1002
{
1070
     1
1070
     0
1002
}
  0
TEXT
  5
CE
  8
DEFAULT
 10
-6.842028532007586
 20
-77.17201375329621
 30
0.0
 40
1.604520218964683
  1
C
  7
MILLIMETER_SMALL
1001
ACADANNOTATIVE
1000
AnnotativeData
1002
{
1070
     1
1070
     0
1002
}
  0
TEXT
  5
CF
  8
DEFAULT
 10
-4.832377960148614
 20
-78.74362743718328
 30
0.0
 40
1.604520218964683
  1
B
  7
MILLIMETER_SMALL
1001
ACADANNOTATIVE
1000
AnnotativeData
1002
{
1070
     1
1070
     0
1002
}
  0
TEXT
  5
D0
  8
DEFAULT
 10
-5.667037556647424
 20
-71.25177950975072
 30
0.0
 40
2.411779412115062
  1
T1
  7
ARIAL_\U+041E\U+0411\U+042B\U+0427\U+041D\U+042B\U+0419
1001
ACADANNOTATIVE
1000
AnnotativeData
1002
{
1070
     1
1070
     0
1002
}
  0
LINE
  5
D1
  8
CUTGRAVE
 10
-1.897475292597561
 20
-73.02606767573782
 30
0.0
 11
-1.897475292597561
 21
-74.66575907990962
 31
0.0
  0
LINE
  5
D2
  8
CUTGRAVE
 10
-3.896581748206017
 20
-73.02606767573782
 30
0.0
 11
-3.896581748206024
 21
-76.25075907990966
 31
0.0
  0
LINE
  5
D3
  8
CUTGRAVE
 10
-5.8956882038145
 20
-73.02606767573782
 30
0.0
 11
-5.8956882038145
 21
-74.66575907990962
 31
0.0
  0
POLYLINE
  5
D4
  8
CUTGRAVE
 66
     1
 10
0.0
 20
0.0
 30
0.0
  0
VERTEX
  5
D5
  8
CUTGRAVE
 10
-0.7315232330403765
 20
-67.54544134718033
 30
0.0
  0
VERTEX
  5
D6
  8
CUTGRAVE
 10
-0.731717294054817
 20
-67.52839347838626
 30
0.0
  0
VERTEX
  5
D7
  8
CUTGRAVE
 10
-0.7323029778260576
 20
-67.51127039407147
 30
0.0
  0
VERTEX
  5
D8
  8
CUTGRAVE
 10
-0.733285479077495
 20
-67.4940747952595
 30
0.0
  0
VERTEX
  5
D9
  8
CUTGRAVE
 10
-0.7346699129923205
 20
-67.4768094634115
 30
0.0
  0
VERTEX
  5
DA
  8
CUTGRAVE
 10
-0.7364613096852762
 20
-67.45947726020111
 30
0.0
  0
VERTEX
  5
DB
  8
CUTGRAVE
 10
-0.7386646086195372
 20
-67.44208112719473
 30
0.0
  0
VERTEX
  5
DC
  8
CUTGRAVE
 10
-0.7412846529756512
 20
-67.42462408543508
 30
0.0
  0
VERTEX
  5
DD
  8
CUTGRAVE
 10
-0.744326183979815
 20
-67.40710923492574
 30
0.0
  0
VERTEX
  5
DE
  8
CUTGRAVE
 10
-0.7477938351991037
 20
-67.38953975401382
 30
0.0
  0
VERTEX
  5
DF
  8
CUTGRAVE
 10
-0.7516921268116037
 20
-67.37191889866962
 30
0.0
  0
VERTEX
  5
E0
  8
CUTGRAVE
 10
-0.7560254598597274
 20
-67.3542500016606
 30
0.0
  0
VERTEX
  5
E1
  8
CUTGRAVE
 10
-0.7607981104952958
 20
-67.33653647161822
 30
0.0
  0
VERTEX
  5
E2
  8
CUTGRAVE
 10
-0.7660142242252842
 20
-67.31878179199592
 30
0.0
  0
VERTEX
  5
E3
  8
CUTGRAVE
 10
-0.771677810167412
 20
-67.30098951991704
 30
0.0
  0
VERTEX
  5
E4
  8
CUTGRAVE
 10
-0.7777927353250365
 20
-67.28316328491098
 30
0.0
  0
VERTEX
  5
E5
  8
CUTGRAVE
 10
-0.7843627188910647
 20
-67.2653067875371
 30
0.0
  0
VERTEX
  5
E6
  8
CUTGRAVE
 10
-0.7913913265908469
 20
-67.24742379789507
 30
0.0
  0
VERTEX
  5
E7
  8
CUTGRAVE
 10
-0.7988819650742282
 20
-67.22951815402132
 30
0.0
  0
VERTEX
  5
E8
  8
CUTGRAVE
 10
-0.8068378763671467
 20
-67.21159376017127
 30
0.0
  0
VERTEX
  5
E9
  8
CUTGRAVE
 10
-0.815262132393336
 20
-67.19365458498672
 30
0.0
  0
VERTEX
  5
EA
  8
CUTGRAVE
 10
-0.8241576295768585
 20
-67.17570465954915
 30
0.0
  0
VERTEX
  5
EB
  8
CUTGRAVE
 10
-0.8335270835363116
 20
-67.15774807531874
 30
0.0
  0
VERTEX
  5
EC
  8
CUTGRAVE
 10
-0.8433730238816709
 20
-67.13978898196001
 30
0.0
  0
VERTEX
  5
ED
  8
CUTGRAVE
 10
-0.853697789124797
 20
-67.1218315850549
 30
0.0
  0
VERTEX
  5
EE
  8
CUTGRAVE
 10
-0.864503521714688
 20
-67.10388014370433
 30
0.0
  0
VERTEX
  5
EF
  8
CUTGRAVE
 10
-0.8757921632085786
 20
-67.08593896801969
 30
0.0
  0
VERTEX
  5
F0
  8
CUTGRAVE
 10
-0.8875654495899711
 20
-67.06801241650616
 30
0.0
  0
VERTEX
  5
F1
  8
CUTGRAVE
 10
-0.8998249067446376
 20
-67.05010489333961
 30
0.0
  0
VERTEX
  5
F2
  8
CUTGRAVE
 10
-0.9125718461055589
 20
-67.03222084553931
 30
0.0
  0
VERTEX
  5
F3
  8
CUTGRAVE
 10
-0.9258073604776497
 20
-67.01436476003941
 30
0.0
  0
VERTEX
  5
F4
  8
CUTGRAVE
 10
-0.9395323200529786
 20
-66.99654116066151
 30
0.0
  0
VERTEX
  5
F5
  8
CUTGRAVE
 10
-0.9537473686270027
 20
-66.97875460499182
 30
0.0
  0
VERTEX
  5
F6
  8
CUTGRAVE
 10
-0.9684529200261298
 20
-66.96100968116627
 30
0.0
  0
VERTEX
  5
F7
  8
CUTGRAVE
 10
-0.9836491547566646
 20
-66.94331100456715
 30
0.0
  0
VERTEX
  5
F8
  8
CUTGRAVE
 10
-1.015513211157857
 20
-66.90807097040268
 30
0.0
  0
VERTEX
  5
F9
  8
CUTGRAVE
 10
-1.049336203010134
 20
-66.87307183978342
 30
0.0
  0
VERTEX
  5
FA
  8
CUTGRAVE
 10
-1.085110888504083
 20
-66.83835116119667
 30
0.0
  0
VERTEX
  5
FB
  8
CUTGRAVE
 10
-1.122826056008692
 20
-66.8039465756884
 30
0.0
  0
VERTEX
  5
FC
  8
CUTGRAVE
 10
-1.162466479249133
 20
-66.76989569471199
 30
0.0
  0
VERTEX
  5
FD
  8
CUTGRAVE
 10
-1.204012891327179
 20
-66.73623597521625
 30
0.0
  0
VERTEX
  5
FE
  8
CUTGRAVE
 10
-1.247441978268038
 20
-66.70300459276812
 30
0.0
  0
VERTEX
  5
FF
  8
CUTGRAVE
 10
-1.292726392615669
 20
-66.67023831354842
 30
0.0
  0
VERTEX
  5
100
  8
CUTGRAVE
 10
-1.339834787425569
 20
-66.63797336609016
 30
0.0
  0
VERTEX
  5
101
  8
CUTGRAVE
 10
-1.388731870821819
 20
-66.60624531365397
 30
0.0
  0
VERTEX
  5
102
  8
CUTGRAVE
 10
-1.439378481096306
 20
-66.5750889281471
 30
0.0
  0
VERTEX
  5
103
  8
CUTGRAVE
 10
-1.49173168213517
 20
-66.54453806649532
 30
0.0
  0
VERTEX
  5
104
  8
CUTGRAVE
 10
-1.545744878763467
 20
-66.51462555036922
 30
0.0
  0
VERTEX
  5
105
  8
CUTGRAVE
 10
-1.601367951406704
 20
-66.48538305014601
 30
0.0
  0
VERTEX
  5
106
  8
CUTGRAVE
 10
-1.658547409280202
 20
-66.45684097395858
 30
0.0
  0
VERTEX
  5
107
  8
CUTGRAVE
 10
-1.717226561137074
 20
-66.429028362642
 30
0.0
  0
VERTEX
  5
108
  8
CUTGRAVE
 10
-1.777345702435803
 20
-66.40197279133731
 30
0.0
  0
VERTEX
  5
109
  8
CUTGRAVE
 10
-1.838842317631469
 20
-66.37570027845143
 30
0.0
  0
VERTEX
  5
10A
  8
CUTGRAVE
 10
-1.901651296153217
 20
-66.35023520260384
 30
0.0
  0
VERTEX
  5
10B
  8
CUTGRAVE
 10
-1.965705160506458
 20
-66.32560022811381
 30
0.0
  0
VERTEX
  5
10C
  8
CUTGRAVE
 10
-2.030934304833561
 20
-66.30181623949987
 30
0.0
  0
VERTEX
  5
10D
  8
CUTGRAVE
 10
-2.164630858672713
 20
-66.25687553203059
 30
0.0
  0
VERTEX
  5
10E
  8
CUTGRAVE
 10
-2.302151097321794
 20
-66.2155426720571
 30
0.0
  0
VERTEX
  5
10F
  8
CUTGRAVE
 10
-2.442887485484605
 20
-66.1779162051655
 30
0.0
  0
VERTEX
  5
110
  8
CUTGRAVE
 10
-2.586223213585253
 20
-66.1440632583109
 30
0.0
  0
VERTEX
  5
111
  8
CUTGRAVE
 10
-2.731540453319813
 20
-66.11401978754641
 30
0.0
  0
VERTEX
  5
112
  8
CUTGRAVE
 10
-2.878228254778137
 20
-66.08779140887087
 30
0.0
  0
VERTEX
  5
113
  8
CUTGRAVE
 10
-3.025689897291923
 20
-66.0653547569468
 30
0.0
  0
VERTEX
  5
114
  8
CUTGRAVE
 10
-3.173349538172204
 20
-66.04665930195081
 30
0.0
  0
VERTEX
  5
115
  8
CUTGRAVE
 10
-3.32065803972344
 20
-66.03162954459371
 30
0.0
  0
VERTEX
  5
116
  8
CUTGRAVE
 10
-3.467097892993541
 20
-66.02016750353015
 30
0.0
  0
VERTEX
  5
117
  8
CUTGRAVE
 10
-3.612187194412471
 20
-66.01215540780821
 30
0.0
  0
VERTEX
  5
118
  8
CUTGRAVE
 10
-3.755482666855147
 20
-66.00745850927628
 30
0.0
  0
VERTEX
  5
119
  8
CUTGRAVE
 10
-3.896581748206017
 20
-66.00592793536573
 30
0.0
  0
VERTEX
  5
11A
  8
CUTGRAVE
 10
-4.037680829556893
 20
-66.00745850927628
 30
0.0
  0
VERTEX
  5
11B
  8
CUTGRAVE
 10
-4.180976301999577
 20
-66.01215540780821
 30
0.0
  0
VERTEX
  5
11C
  8
CUTGRAVE
 10
-4.326065603418516
 20
-66.02016750353015
 30
0.0
  0
VERTEX
  5
11D
  8
CUTGRAVE
 10
-4.472505456688625
 20
-66.03162954459371
 30
0.0
  0
VERTEX
  5
11E
  8
CUTGRAVE
 10
-4.619813958239869
 20
-66.04665930195081
 30
0.0
  0
VERTEX
  5
11F
  8
CUTGRAVE
 10
-4.767473599120156
 20
-66.0653547569468
 30
0.0
  0
VERTEX
  5
120
  8
CUTGRAVE
 10
-4.914935241633949
 20
-66.08779140887087
 30
0.0
  0
VERTEX
  5
121
  8
CUTGRAVE
 10
-5.06162304309228
 20
-66.11401978754641
 30
0.0
  0
VERTEX
  5
122
  8
CUTGRAVE
 10
-5.206940282826846
 20
-66.1440632583109
 30
0.0
  0
VERTEX
  5
123
  8
CUTGRAVE
 10
-5.3502760109275
 20
-66.1779162051655
 30
0.0
  0
VERTEX
  5
124
  8
CUTGRAVE
 10
-5.491012399090317
 20
-66.2155426720571
 30
0.0
  0
VERTEX
  5
125
  8
CUTGRAVE
 10
-5.628532637739401
 20
-66.25687553203059
 30
0.0
  0
VERTEX
  5
126
  8
CUTGRAVE
 10
-5.762229191578557
 20
-66.30181623949987
 30
0.0
  0
VERTEX
  5
127
  8
CUTGRAVE
 10
-5.827458335905663
 20
-66.32560022811381
 30
0.0
  0
VERTEX
  5
128
  8
CUTGRAVE
 10
-5.891512200258905
 20
-66.35023520260384
 30
0.0
  0
VERTEX
  5
129
  8
CUTGRAVE
 10
-5.954321178780655
 20
-66.37570027845143
 30
0.0
  0
VERTEX
  5
12A
  8
CUTGRAVE
 10
-6.015817793976322
 20
-66.40197279133731
 30
0.0
  0
VERTEX
  5
12B
  8
CUTGRAVE
 10
-6.075936935275051
 20
-66.429028362642
 30
0.0
  0
VERTEX
  5
12C
  8
CUTGRAVE
 10
-6.134616087131925
 20
-66.45684097395858
 30
0.0
  0
VERTEX
  5
12D
  8
CUTGRAVE
 10
-6.191795545005423
 20
-66.48538305014601
 30
0.0
  0
VERTEX
  5
12E
  8
CUTGRAVE
 10
-6.247418617648663
 20
-66.51462555036922
 30
0.0
  0
VERTEX
  5
12F
  8
CUTGRAVE
 10
-6.301431814276961
 20
-66.54453806649532
 30
0.0
  0
VERTEX
  5
130
  8
CUTGRAVE
 10
-6.353785015315825
 20
-66.5750889281471
 30
0.0
  0
VERTEX
  5
131
  8
CUTGRAVE
 10
-6.404431625590312
 20
-66.60624531365397
 30
0.0
  0
VERTEX
  5
132
  8
CUTGRAVE
 10
-6.453328708986561
 20
-66.63797336609016
 30
0.0
  0
VERTEX
  5
133
  8
CUTGRAVE
 10
-6.50043710379646
 20
-66.67023831354842
 30
0.0
  0
VERTEX
  5
134
  8
CUTGRAVE
 10
-6.545721518144092
 20
-66.70300459276812
 30
0.0
  0
VERTEX
  5
135
  8
CUTGRAVE
 10
-6.589150605084953
 20
-66.73623597521625
 30
0.0
  0
VERTEX
  5
136
  8
CUTGRAVE
 10
-6.630697017162999
 20
-66.76989569471199
 30
0.0
  0
VERTEX
  5
137
  8
CUTGRAVE
 10
-6.670337440403441
 20
-66.8039465756884
 30
0.0
  0
VERTEX
  5
138
  8
CUTGRAVE
 10
-6.708052607908046
 20
-66.83835116119667
 30
0.0
  0
VERTEX
  5
139
  8
CUTGRAVE
 10
-6.743827293401994
 20
-66.87307183978342
 30
0.0
  0
VERTEX
  5
13A
  8
CUTGRAVE
 10
-6.77765028525427
 20
-66.90807097040268
 30
0.0
  0
VERTEX
  5
13B
  8
CUTGRAVE
 10
-6.80951434165546
 20
-66.94331100456715
 30
0.0
  0
VERTEX
  5
13C
  8
CUTGRAVE
 10
-6.824710576385995
 20
-66.96100968116627
 30
0.0
  0
VERTEX
  5
13D
  8
CUTGRAVE
 10
-6.839416127785123
 20
-66.97875460499182
 30
0.0
  0
VERTEX
  5
13E
  8
CUTGRAVE
 10
-6.853631176359145
 20
-66.99654116066151
 30
0.0
  0
VERTEX
  5
13F
  8
CUTGRAVE
 10
-6.867356135934473
 20
-67.01436476003941
 30
0.0
  0
VERTEX
  5
140
  8
CUTGRAVE
 10
-6.880591650306564
 20
-67.03222084553931
 30
0.0
  0
VERTEX
  5
141
  8
CUTGRAVE
 10
-6.893338589667485
 20
-67.05010489333961
 30
0.0
  0
VERTEX
  5
142
  8
CUTGRAVE
 10
-6.90559804682215
 20
-67.06801241650616
 30
0.0
  0
VERTEX
  5
143
  8
CUTGRAVE
 10
-6.917371333203542
 20
-67.08593896801969
 30
0.0
  0
VERTEX
  5
144
  8
CUTGRAVE
 10
-6.928659974697432
 20
-67.10388014370433
 30
0.0
  0
VERTEX
  5
145
  8
CUTGRAVE
 10
-6.939465707287321
 20
-67.1218315850549
 30
0.0
  0
VERTEX
  5
146
  8
CUTGRAVE
 10
-6.949790472530446
 20
-67.13978898196001
 30
0.0
  0
VERTEX
  5
147
  8
CUTGRAVE
 10
-6.959636412875805
 20
-67.15774807531874
 30
0.0
  0
VERTEX
  5
148
  8
CUTGRAVE
 10
-6.969005866835258
 20
-67.17570465954915
 30
0.0
  0
VERTEX
  5
149
  8
CUTGRAVE
 10
-6.977901364018778
 20
-67.19365458498672
 30
0.0
  0
VERTEX
  5
14A
  8
CUTGRAVE
 10
-6.986325620044966
 20
-67.21159376017127
 30
0.0
  0
VERTEX
  5
14B
  8
CUTGRAVE
 10
-6.994281531337883
 20
-67.22951815402132
 30
0.0
  0
VERTEX
  5
14C
  8
CUTGRAVE
 10
-7.001772169821264
 20
-67.24742379789507
 30
0.0
  0
VERTEX
  5
14D
  8
CUTGRAVE
 10
-7.008800777521046
 20
-67.2653067875371
 30
0.0
  0
VERTEX
  5
14E
  8
CUTGRAVE
 10
-7.015370761087071
 20
-67.28316328491098
 30
0.0
  0
VERTEX
  5
14F
  8
CUTGRAVE
 10
-7.021485686244695
 20
-67.30098951991704
 30
0.0
  0
VERTEX
  5
150
  8
CUTGRAVE
 10
-7.027149272186822
 20
-67.31878179199592
 30
0.0
  0
VERTEX
  5
151
  8
CUTGRAVE
 10
-7.032365385916809
 20
-67.33653647161822
 30
0.0
  0
VERTEX
  5
152
  8
CUTGRAVE
 10
-7.037138036552376
 20
-67.3542500016606
 30
0.0
  0
VERTEX
  5
153
  8
CUTGRAVE
 10
-7.041471369600498
 20
-67.37191889866962
 30
0.0
  0
VERTEX
  5
154
  8
CUTGRAVE
 10
-7.045369661212997
 20
-67.38953975401382
 30
0.0
  0
VERTEX
  5
155
  8
CUTGRAVE
 10
-7.048837312432284
 20
-67.40710923492574
 30
0.0
  0
VERTEX
  5
156
  8
CUTGRAVE
 10
-7.051878843436447
 20
-67.42462408543508
 30
0.0
  0
VERTEX
  5
157
  8
CUTGRAVE
 10
-7.054498887792561
 20
-67.44208112719473
 30
0.0
  0
VERTEX
  5
158
  8
CUTGRAVE
 10
-7.05670218672682
 20
-67.45947726020111
 30
0.0
  0
VERTEX
  5
159
  8
CUTGRAVE
 10
-7.058493583419774
 20
-67.4768094634115
 30
0.0
  0
VERTEX
  5
15A
  8
CUTGRAVE
 10
-7.0598780173346
 20
-67.4940747952595
 30
0.0
  0
VERTEX
  5
15B
  8
CUTGRAVE
 10
-7.060860518586035
 20
-67.51127039407147
 30
0.0
  0
VERTEX
  5
15C
  8
CUTGRAVE
 10
-7.061446202357273
 20
-67.52839347838626
 30
0.0
  0
VERTEX
  5
15D
  8
CUTGRAVE
 10
-7.061640263371713
 20
-67.54544134718033
 30
0.0
  0
SEQEND
  5
15E
  8
CUTGRAVE
  0
POLYLINE
  5
15F
  8
CUTGRAVE
 66
     1
 10
0.0
 20
0.0
 30
0.0
 70
     1
  0
VERTEX
  5
160
  8
CUTGRAVE
 10
-7.061640263371713
 20
-73.02606767573782
 30
0.0
  0
VERTEX
  5
161
  8
CUTGRAVE
 10
-0.7315232330403765
 20
-73.02606767573782
 30
0.0
  0
VERTEX
  5
162
  8
CUTGRAVE
 10
-0.7315232330403765
 20
-67.54544134718033
 30
0.0
  0
VERTEX
  5
163
  8
CUTGRAVE
 10
-7.061640263371713
 20
-67.54544134718033
 30
0.0
  0
SEQEND
  5
164
  8
CUTGRAVE
  0
CIRCLE
  5
165
  8
CUT
 10
-3.896581748206024
 20
-76.25075907990966
 30
0.0
 40
0.4
  0
CIRCLE
  5
166
  8
CUT
 10
-5.8956882038145
 20
-74.66575907990962
 30
0.0
 40
0.4
  0
CIRCLE
  5
167
  8
CUT
 10
-1.897475292597561
 20
-74.66575907990962
 30
0.0
 40
0.4
  0
INSERT
  5
169
  8
DEFAULT
  2
*X1
 10
0.0
 20
0.0
 30
0.0
  0
POLYLINE
  5
16A
  8
CUT
 66
     1
 10
0.0
 20
0.0
 30
0.0
 70
     1
  0
VERTEX
  5
16B
  8
CUT
 10
30.63295184147032
 20
-105.0
 30
0.0
  0
VERTEX
  5
16C
  8
CUT
 10
73.80452471672413
 20
-105.0
 30
0.0
 42
0.4142135623730947
  0
VERTEX
  5
16D
  8
CUT
 10
77.21873827909722
 20
-101.5857864376269
 30
0.0
  0
VERTEX
  5
16E
  8
CUT
 10
77.21873827909722
 20
-48.41421356237309
 30
0.0
 42
0.4142135623730957
  0
VERTEX
  5
16F
  8
CUT
 10
73.80452471672412
 20
-45.0
 30
0.0
  0
VERTEX
  5
170
  8
CUT
 10
30.63295184147032
 20
-45.0
 30
0.0
 42
0.4142135623730955
  0
VERTEX
  5
171
  8
CUT
 10
27.21873827909722
 20
-48.41421356237309
 30
0.0
  0
VERTEX
  5
172
  8
CUT
 10
27.21873827909722
 20
-101.5857864376269
 30
0.0
 42
0.4142135623730954
  0
SEQEND
  5
173
  8
CUT
  0
POLYLINE
  5
174
  8
CUTGRAVE
 66
     1
 10
0.0
 20
0.0
 30
0.0
 70
     1
  0
VERTEX
  5
175
  8
CUTGRAVE
 10
-4.953168309835734
 20
-101.999717571074
 30
0.0
  0
VERTEX
  5
176
  8
CUTGRAVE
 10
-1.302226029264391
 20
-101.999717571074
 30
0.0
  0
VERTEX
  5
177
  8
CUTGRAVE
 10
-1.302226029264391
 20
-91.10458300773878
 30
0.0
  0
VERTEX
  5
178
  8
CUTGRAVE
 10
-4.953168309835734
 20
-91.10458300773878
 30
0.0
  0
SEQEND
  5
179
  8
CUTGRAVE
  0
POLYLINE
  5
17A
  8
CUT
 66
     1
 10
0.0
 20
0.0
 30
0.0
 70
     1
  0
VERTEX
  5
17B
  8
CUT
 10
-2.52769716954994
 20
-101.2171502894065
 30
0.0
  0
VERTEX
  5
17C
  8
CUT
 10
-3.727697169549758
 20
-101.2171502894065
 30
0.0
  0
VERTEX
  5
17D
  8
CUT
 10
-3.727697169549758
 20
-100.3871502894066
 30
0.0
  0
VERTEX
  5
17E
  8
CUT
 10
-2.52769716954994
 20
-100.3871502894066
 30
0.0
  0
SEQEND
  5
17F
  8
CUT
  0
POLYLINE
  5
180
  8
CUT
 66
     1
 10
0.0
 20
0.0
 30
0.0
 70
     1
  0
VERTEX
  5
181
  8
CUT
 10
-2.527697169549926
 20
-91.88715028940634
 30
0.0
  0
VERTEX
  5
182
  8
CUT
 10
-3.727697169550199
 20
-91.88715028940634
 30
0.0
  0
VERTEX
  5
183
  8
CUT
 10
-3.727697169550199
 20
-92.71715028940649
 30
0.0
  0
VERTEX
  5
184
  8
CUT
 10
-2.527697169549926
 20
-92.71715028940649
 30
0.0
  0
SEQEND
  5
185
  8
CUT
  0
CIRCLE
  5
186
  8
CUT
 10
-3.127697169549381
 20
-96.55215028940654
 30
0.0
 40
0.4149999999999632
  0
CIRCLE
  5
187
  8
CUT
 10
-3.127697169549364
 20
-94.22215028940616
 30
0.0
 40
0.4150000000004344
  0
CIRCLE
  5
188
  8
CUT
 10
-3.127697169549849
 20
-98.88215028940645
 30
0.0
 40
0.4149999999999901
  0
TEXT
  5
189
  8
DEFAULT
 10
-4.448740621287169
 20
-90.06409223673909
 30
0.0
 40
1.143002286004572
  1
ON
  7
ARIAL_\U+041E\U+0411\U+042B\U+0427\U+041D\U+042B\U+0419
1001
ACADANNOTATIVE
1000
AnnotativeData
1002
{
1070
     1
1070
     0
1002
}
  0
TEXT
  5
18A
  8
DEFAULT
 10
13.85321578925168
 20
-72.36212038323364
 30
0.0
 40
4.0
  1
-
 50
90.00000000000016
  7
DEFAULT
1001
ACADANNOTATIVE
1000
AnnotativeData
1002
{
1070
     1
1070
     0
1002
}
  0
TEXT
  5
18B
  8
DEFAULT
 10
10.41743108293275
 20
-88.49978228396779
 30
0.0
 40
4.0
  1
+
  7
DEFAULT
1001
ACADANNOTATIVE
1000
AnnotativeData
1002
{
1070
     1
1070
     0
1002
}
  0
TEXT
  5
18C
  8
DEFAULT
 10
14.09855747273433
 20
-80.75985601819617
 30
0.0
 40
3.429006858013716
  1
B1
 50
90.00000000000001
  7
ARIAL_\U+041E\U+0411\U+042B\U+0427\U+041D\U+042B\U+0419
1001
ACADANNOTATIVE
1000
AnnotativeData
1002
{
1070
     1
1070
     0
1002
}
  0
CIRCLE
  5
18D
  8
CUTGRAVE
 10
12.35297457256624
 20
-68.78995250141095
 30
0.0
 40
0.5
  0
CIRCLE
  5
18E
  8
CUTGRAVE
 10
12.35297457256627
 20
-88.78995250141095
 30
0.0
 40
0.5
  0
POLYLINE
  5
18F
  8
CUTGRAVE
 66
     1
 10
0.0
 20
0.0
 30
0.0
 70
     1
  0
VERTEX
  5
190
  8
CUTGRAVE
 10
8.352974572597475
 20
-87.03690326737645
 30
0.0
  0
VERTEX
  5
191
  8
CUTGRAVE
 10
8.352974572597475
 20
-89.78995250141095
 30
0.0
  0
VERTEX
  5
192
  8
CUTGRAVE
 10
16.35297457259747
 20
-89.78995250141095
 30
0.0
  0
VERTEX
  5
193
  8
CUTGRAVE
 10
16.35297457259748
 20
-87.03690326736474
 30
0.0
 42
5.311737691489962
  0
SEQEND
  5
194
  8
CUTGRAVE
  0
CIRCLE
  5
195
  8
CUT
 10
-16.75109563415424
 20
-93.25569408133362
 30
0.0
 40
0.4
  0
CIRCLE
  5
196
  8
CUT
 10
14.02406310412896
 20
-99.25356516075935
 30
0.0
 40
0.4
210
0.0
220
0.0
230
-1.0
  0
CIRCLE
  5
197
  8
CUT
 10
-19.47812816417952
 20
-99.25356516075935
 30
0.0
 40
0.4
  0
POLYLINE
  5
198
  8
CUTGRAVE
 66
     1
 10
0.0
 20
0.0
 30
0.0
 70
     1
  0
VERTEX
  5
199
  8
CUTGRAVE
 10
-21.90110833417964
 20
-91.09997459994906
 30
0.0
  0
VERTEX
  5
19A
  8
CUTGRAVE
 10
-21.90110833417964
 20
-102.0
 30
0.0
  0
VERTEX
  5
19B
  8
CUTGRAVE
 10
-11.60108293412884
 20
-102.0
 30
0.0
  0
VERTEX
  5
19C
  8
CUTGRAVE
 10
-11.60108293412884
 20
-91.09997459994906
 30
0.0
  0
SEQEND
  5
19D
  8
CUTGRAVE
  0
CIRCLE
  5
19E
  8
CUTGRAVE
 10
-16.75109563415424
 20
-96.54998729997453
 30
0.0
 40
2.0
  0
TEXT
  5
19F
  8
DEFAULT
 10
-18.2008196455258
 20
-90.08352327560115
 30
0.0
 40
1.143002286004572
  1
VR1
  7
ARIAL_\U+041E\U+0411\U+042B\U+0427\U+041D\U+042B\U+0419
1001
ACADANNOTATIVE
1000
AnnotativeData
1002
{
1070
     1
1070
     0
1002
}
  0
POLYLINE
  5
1A0
  8
CUT
 66
     1
 10
0.0
 20
0.0
 30
0.0
 70
     1
  0
VERTEX
  5
1A1
  8
CUT
 10
-21.5857864376269
 20
-105.0
 30
0.0
  0
VERTEX
  5
1A2
  8
CUT
 10
21.5857864376269
 20
-105.0
 30
0.0
 42
0.4142135623730959
  0
VERTEX
  5
1A3
  8
CUT
 10
25.0
 20
-101.5857864376269
 30
0.0
  0
VERTEX
  5
1A4
  8
CUT
 10
25.0
 20
-48.41421356237309
 30
0.0
 42
0.414213562373095
  0
VERTEX
  5
1A5
  8
CUT
 10
21.5857864376269
 20
-45.0
 30
0.0
  0
VERTEX
  5
1A6
  8
CUT
 10
-21.5857864376269
 20
-45.0
 30
0.0
 42
0.4142135623730955
  0
VERTEX
  5
1A7
  8
CUT
 10
-25.0
 20
-48.41421356237309
 30
0.0
  0
VERTEX
  5
1A8
  8
CUT
 10
-25.0
 20
-101.5857864376269
 30
0.0
 42
0.4142135623730954
  0
SEQEND
  5
1A9
  8
CUT
  0
ENDSEC
  0
EOF
